<svg width="190" height="134" viewBox="0 0 190 134" fill="none" xmlns="http://www.w3.org/2000/svg">
<path d="M86.8512 46.9498C86.1512 39.5498 79.3512 26.7498 62.4512 24.4498C51.0512 22.9498 26.4512 25.9498 21.5512 46.8498L21.4512 51.4498" stroke="#D4D4D4" stroke-width="1.3" stroke-miterlimit="10" stroke-linecap="round" stroke-linejoin="round"/>
<path d="M28.5508 52.45C30.5508 42.25 39.1508 30.05 56.9508 29.55C69.3508 29.15 79.8508 34.65 85.5508 48.15C88.8508 55.95 90.0508 64.65 91.1508 76.05" stroke="#D4D4D4" stroke-width="1.3" stroke-miterlimit="10" stroke-linecap="round"/>
<path d="M29.4514 51.8497C32.0514 51.7497 36.2514 54.5497 36.5514 62.5497C36.7514 68.1497 34.4514 77.1497 26.8514 77.2497C23.6514 77.2497 14.4514 76.4497 13.6514 66.4497C13.0514 58.0497 18.4514 52.6497 22.9514 52.6497C26.9514 52.6497 30.6514 56.1497 30.4514 64.0497C30.3514 69.4497 27.2514 75.2497 22.5514 75.6497" stroke="#D4D4D4" stroke-width="1.3" stroke-miterlimit="10"/>
<path d="M17.0518 75.25L14.4518 84.95C12.8518 93.55 12.4518 103.05 14.4518 111.05" stroke="#D4D4D4" stroke-width="1.3" stroke-miterlimit="10" stroke-linecap="round" stroke-linejoin="round"/>
<path d="M85.752 47.1499C89.252 47.1499 94.2519 49.3499 94.6519 59.6499C94.7519 64.0499 92.5519 68.0499 90.0519 68.6499" stroke="#D4D4D4" stroke-width="1.3" stroke-miterlimit="10"/>
<path d="M11.6521 77.3496C8.55211 78.1496 5.15211 81.1496 4.95211 86.6496C4.75211 92.2496 6.05211 104.75 7.35211 110.15" stroke="#D4D4D4" stroke-width="1.3" stroke-miterlimit="10" stroke-linecap="round" stroke-linejoin="round"/>
<path d="M36.7516 90.1499C38.9516 94.4499 41.9516 96.1499 47.5516 96.5499C51.0516 97.1499 54.8516 97.3499 57.5516 101.65C59.9516 105.45 58.7516 110.65 52.0516 112.65C48.1516 113.75 39.5516 116.25 31.0516 114.45C25.6516 113.05 19.0516 109.95 17.3516 102.05" stroke="#D4D4D4" stroke-width="1.3" stroke-miterlimit="10" stroke-linecap="round"/>
<path d="M22.4504 111.95L0.650391 115.45L0.750391 115.95L3.85039 117.05L49.8504 130.45" stroke="#D4D4D4" stroke-width="1.3" stroke-miterlimit="10" stroke-linecap="round" stroke-linejoin="round"/>
<path d="M46.0508 115.45L47.4508 116.55C47.4508 116.55 72.0508 122.15 74.9508 122.15L88.8508 119.95L123.851 113.45L124.651 113.65C125.451 113.15 126.051 112.05 126.451 110.05L133.051 76.1497C133.551 74.0497 131.851 72.9497 130.451 73.0497L83.8508 79.5497C82.0508 79.5497 80.9508 80.5497 80.5508 82.4497L75.4508 122.05" stroke="#D4D4D4" stroke-width="1.3" stroke-miterlimit="10" stroke-linecap="round" stroke-linejoin="round"/>
<path d="M55.4512 115.25L72.9512 118.95" stroke="#D4D4D4" stroke-width="1.3" stroke-miterlimit="10" stroke-linecap="round" stroke-linejoin="round"/>
<path d="M60.8516 107.95L74.8516 105.45" stroke="#D4D4D4" stroke-width="1.3" stroke-miterlimit="10" stroke-linecap="round" stroke-linejoin="round"/>
<path d="M64.752 112.45L73.952 110.45" stroke="#D4D4D4" stroke-width="0.5" stroke-miterlimit="10" stroke-linecap="round" stroke-linejoin="round"/>
<path d="M68.3516 112.45C68.5516 113.55 71.6516 114.05 73.3516 113.15" stroke="#D4D4D4" stroke-width="0.5" stroke-miterlimit="10" stroke-linecap="round" stroke-linejoin="round"/>
<path d="M169.051 109.65L189.051 114.15" stroke="#D4D4D4" stroke-width="1.3" stroke-miterlimit="10" stroke-linecap="round" stroke-linejoin="round"/>
<path d="M131.352 102.65C134.952 103.05 139.552 104.15 142.852 105.05" stroke="#D4D4D4" stroke-width="1.3" stroke-miterlimit="10" stroke-linecap="round" stroke-linejoin="round"/>
<path d="M87.0508 126.65L120.051 120.65" stroke="#D4D4D4" stroke-width="0.5" stroke-miterlimit="10" stroke-linecap="round" stroke-linejoin="round"/>
<path d="M103.852 129.15L123.352 126.15L166.852 119.95" stroke="#D4D4D4" stroke-width="1.3" stroke-miterlimit="10" stroke-linecap="round" stroke-linejoin="round"/>
<path d="M132.051 111.15L138.951 110.15" stroke="#D4D4D4" stroke-width="0.5" stroke-miterlimit="10" stroke-linecap="round" stroke-linejoin="round"/>
<path d="M130.051 118.45L140.551 116.65" stroke="#D4D4D4" stroke-width="0.5" stroke-miterlimit="10" stroke-linecap="round" stroke-linejoin="round"/>
<path d="M49.5508 124.95L55.4508 124.45L59.8508 125.15" stroke="#D4D4D4" stroke-width="0.5" stroke-miterlimit="10" stroke-linecap="round" stroke-linejoin="round"/>
<path d="M33.8516 120.65L37.8516 120.15" stroke="#D4D4D4" stroke-width="0.5" stroke-miterlimit="10" stroke-linecap="round" stroke-linejoin="round"/>
<path d="M66.4512 128.55L71.8512 128.05L80.4512 127.65" stroke="#D4D4D4" stroke-width="0.5" stroke-miterlimit="10" stroke-linecap="round" stroke-linejoin="round"/>
<path d="M68.8516 133.65L80.0516 132.05" stroke="#D4D4D4" stroke-width="0.5" stroke-miterlimit="10" stroke-linecap="round" stroke-linejoin="round"/>
<path d="M144.051 94.15C143.851 95.45 145.551 110.45 146.951 112.55C147.951 114.15 153.851 115.55 157.951 115.15L162.951 114.25C164.051 113.95 165.951 112.95 166.451 110.25L169.351 94.55C169.551 91.65 162.051 91.25 160.051 91.05C159.851 89.45 165.051 88.05 167.551 84.15C169.351 82.15 172.051 76.65 168.551 77.45C162.351 77.95 157.951 87.05 155.951 92.95C154.551 89.05 154.351 82.05 150.551 78.55C145.051 73.05 143.051 75.15 144.551 80.45C146.451 86.15 151.951 88.55 152.351 91.05C149.351 90.95 144.451 91.55 144.051 93.55C144.051 96.55 156.851 97.15 163.351 96.25C166.351 95.95 169.351 95.45 169.351 93.55" stroke="#D4D4D4" stroke-width="1.3" stroke-miterlimit="10" stroke-linecap="round" stroke-linejoin="round"/>
<path d="M153.85 84.2498C152.45 76.4498 153.451 70.9498 155.551 67.0498C158.351 63.4498 160.35 71.5498 159.95 75.2498C159.45 80.9498 158.351 86.0498 157.551 87.9498" stroke="#D4D4D4" stroke-width="1.3" stroke-miterlimit="10" stroke-linecap="round" stroke-linejoin="round"/>
<path d="M171.051 118.45L173.551 118.15" stroke="#D4D4D4" stroke-width="0.5" stroke-miterlimit="10" stroke-linecap="round" stroke-linejoin="round"/>
<path d="M168.352 119.15H169.052" stroke="#D4D4D4" stroke-width="0.5" stroke-miterlimit="10" stroke-linecap="round" stroke-linejoin="round"/>
<path d="M21.3518 59.4497C19.0518 60.5497 18.5518 66.6497 20.5518 67.6497L21.0518 67.1497C19.9518 65.4497 20.3518 61.4497 21.8518 60.2497L21.3518 59.4497Z" fill="#D4D4D4"/>
<path d="M55.8506 55.55C53.9506 55.65 53.0506 61.15 55.8506 61.95C58.3506 61.65 58.4506 55.45 55.8506 55.55Z" fill="#D4D4D4"/>
<path d="M74.8514 54.0498C72.5514 54.1498 72.8514 59.9498 74.9514 59.9498C77.3514 59.9498 77.1514 54.0498 74.8514 54.0498Z" fill="#D4D4D4"/>
<path d="M62.8514 65.4497C63.3514 67.1497 68.3514 69.1497 71.3514 65.1497C71.8514 64.5497 70.8514 63.6497 70.0514 64.5497C68.5514 66.1497 65.9514 66.6497 64.3514 64.9497C63.5514 64.0497 62.5514 64.5497 62.8514 65.4497Z" fill="#D4D4D4"/>
<path d="M103.852 39.4499C103.852 39.4499 105.352 34.6499 105.952 30.4499C104.052 30.1499 100.352 28.9499 99.3516 24.0499C97.8516 17.5499 98.3516 6.4499 107.452 3.1499C113.452 1.0499 121.052 1.1499 127.852 0.649902C137.552 1.0499 143.052 0.149902 146.952 2.5499C150.452 4.4499 151.552 8.0499 151.452 11.5499C151.952 19.9499 151.052 26.1499 145.452 28.5499C141.352 31.1499 133.552 31.4499 114.852 31.5499L114.552 31.6499C112.952 31.9499 108.052 37.1499 104.552 39.1499" stroke="#D4D4D4" stroke-width="1.3" stroke-miterlimit="10" stroke-linecap="round" stroke-linejoin="round"/>
<path d="M114.451 15.9497C111.851 15.9497 111.851 19.9497 114.351 19.7497C116.851 19.6497 117.551 16.1497 114.451 15.9497Z" fill="#D4D4D4"/>
<path d="M124.852 15.5498C122.452 15.6498 121.552 19.1498 124.352 19.5498C127.852 19.5498 127.952 15.6498 124.852 15.5498Z" fill="#D4D4D4"/>
<path d="M135.45 15.4497C133.45 16.0497 132.55 18.9497 135.45 19.1497C137.85 19.5497 138.45 15.4497 135.45 15.4497Z" fill="#D4D4D4"/>
<path d="M114.052 17.0498L113.852 18.1498L114.552 17.9498L114.352 17.0498H114.052Z" fill="#D4D4D4"/>
<path d="M124.551 17.0497L124.851 17.9497H125.451L124.951 16.9497L124.551 17.0497Z" fill="#D4D4D4"/>
<path d="M135.051 16.9497V17.6497L135.851 17.5497L135.451 16.9497H135.051Z" fill="#D4D4D4"/>
<path d="M127.051 80.1498L128.051 79.0498" stroke="#D4D4D4" stroke-width="0.5" stroke-miterlimit="10" stroke-linecap="round" stroke-linejoin="round"/>
<path d="M95.8516 97.6499L98.0516 97.9499" stroke="#D4D4D4" stroke-width="1.3" stroke-miterlimit="10"/>
<path d="M99.3516 93.6499L98.3516 100.05" stroke="#D4D4D4" stroke-width="1.3" stroke-miterlimit="10"/>
<path d="M104.951 88.9497L102.051 104.55" stroke="#D4D4D4" stroke-width="1.3" stroke-miterlimit="10"/>
<path d="M109.851 92.1499L108.051 100.15" stroke="#D4D4D4" stroke-width="1.3" stroke-miterlimit="10"/>
<path d="M113.851 94.6499L113.051 97.4499" stroke="#D4D4D4" stroke-width="1.3" stroke-miterlimit="10"/>
<path d="M113.352 96.4499L114.352 95.6499" stroke="#D4D4D4" stroke-width="1.3" stroke-miterlimit="10"/>
<path d="M95.3516 97.0499V98.5499L97.8516 98.9499L98.5516 101.05L99.1516 100.15L100.052 93.5499L98.5516 92.6499L97.8516 97.1499L95.3516 97.0499Z" fill="#D4D4D4"/>
<path d="M104.552 88.4499L101.352 104.45L102.552 105.55L103.552 104.45L106.052 88.5499L105.052 87.6499L104.552 88.4499Z" fill="#D4D4D4"/>
<path d="M108.851 91.4497L106.951 100.05L108.451 101.15L110.851 91.9497L108.851 91.4497Z" fill="#D4D4D4"/>
<path d="M113.851 93.6499L111.951 95.9499L113.051 98.5499L115.451 95.9499L113.851 93.6499Z" fill="#D4D4D4"/>
</svg>
